<svg width="17" height="17" viewBox="0 0 17 17" fill="none" xmlns="http://www.w3.org/2000/svg">
<path d="M1.99422 0.906342C1.73832 0.906342 1.47072 0.992347 1.27542 1.18735C0.884919 1.57835 0.884919 2.23434 1.27542 2.62534L7.55672 8.90634L1.27542 15.1873C0.884919 15.5783 0.884919 16.2343 1.27542 16.6253C1.66602 17.0153 2.32242 17.0153 2.71302 16.6253L8.99422 10.3443L15.2754 16.6253C15.666 17.0153 16.3224 17.0153 16.713 16.6253C17.1035 16.2343 17.1035 15.5783 16.713 15.1873L10.4317 8.90634L16.713 2.62534C17.1035 2.23434 17.1035 1.57835 16.713 1.18735C16.5177 0.992347 16.25 0.906342 15.9942 0.906342C15.7383 0.906342 15.4708 0.992347 15.2754 1.18735L8.99422 7.46834L2.71302 1.18735C2.51772 0.992347 2.25012 0.906342 1.99422 0.906342Z" fill="#2A343D"/>
</svg>
