<svg width="18" height="19" viewBox="0 0 18 19" fill="none" xmlns="http://www.w3.org/2000/svg">
<path d="M8.99073 -0.00109862C8.43873 -0.00109862 7.99073 0.446602 7.99073 0.998902V11.5609L4.99073 8.59291L3.58472 9.99891L8.27174 14.7179C8.66274 15.1079 9.31872 15.1079 9.70973 14.7179L14.3967 9.99891L12.9907 8.59291L9.99073 11.5609V0.998902C9.99073 0.446602 9.54273 -0.00119862 8.99073 -0.00109862ZM0.990723 11.9989C0.438723 11.9989 -0.00927734 12.4469 -0.00927734 12.9989V14.9989C-0.00927734 17.2079 1.78172 18.9989 3.99073 18.9989H13.9907C16.1997 18.9989 17.9907 17.2079 17.9907 14.9989V12.9989C17.9907 12.4469 17.5427 11.9989 16.9907 11.9989C16.4387 11.9989 15.9907 12.4469 15.9907 12.9989V14.9989C15.9907 16.1039 15.0957 16.9989 13.9907 16.9989H3.99073C2.88573 16.9989 1.99072 16.1039 1.99072 14.9989V12.9989C1.99072 12.4469 1.54272 11.9989 0.990723 11.9989Z" fill="#2A343D"/>
</svg>
