<svg width="143" height="29" viewBox="0 0 143 29" fill="none" xmlns="http://www.w3.org/2000/svg">
<path d="M48.773 16.575V13.632H57.359V24H54.713L54.2 21.462C52.814 23.442 50.726 24.432 47.936 24.432C45.164 24.432 42.941 23.514 41.267 21.678C39.593 19.842 38.756 17.412 38.756 14.388C38.756 11.364 39.611 8.925 41.321 7.071C43.031 5.253 45.344 4.344 48.26 4.344C50.672 4.344 52.679 4.956 54.281 6.18C55.865 7.404 56.819 9.069 57.143 11.175H53.39C53.12 10.041 52.526 9.15 51.608 8.502C50.708 7.854 49.601 7.53 48.287 7.53C46.523 7.53 45.128 8.142 44.102 9.366C43.076 10.59 42.563 12.264 42.563 14.388C42.563 16.512 43.085 18.186 44.129 19.41C45.173 20.634 46.604 21.246 48.422 21.246C49.862 21.246 51.095 20.814 52.121 19.95C53.147 19.086 53.705 17.961 53.795 16.575H48.773ZM63.8565 24H60.2115V4.776H63.8565V24ZM65.722 4.776H81.706V8.043H75.55V24H71.878V8.043H65.722V4.776ZM96.1285 12.498V4.776H99.7735V24H96.1285V15.792H87.1915V24H83.5465V4.776H87.1915V12.498H96.1285ZM110.676 24.405C108.174 24.405 106.203 23.739 104.763 22.407C103.341 21.057 102.63 19.176 102.63 16.764V4.776H106.275V16.791C106.275 18.249 106.653 19.356 107.409 20.112C108.165 20.868 109.254 21.246 110.676 21.246C112.098 21.246 113.187 20.868 113.943 20.112C114.699 19.356 115.077 18.249 115.077 16.791V4.776H118.722V16.764C118.722 19.212 118.011 21.102 116.589 22.434C115.167 23.748 113.196 24.405 110.676 24.405ZM133.933 13.875C134.995 14.253 135.814 14.856 136.39 15.684C136.984 16.512 137.281 17.448 137.281 18.492C137.281 20.238 136.705 21.597 135.553 22.569C134.419 23.523 132.763 24 130.585 24H121.594V4.776H130.288C132.304 4.776 133.843 5.235 134.905 6.153C135.967 7.071 136.498 8.268 136.498 9.744C136.498 11.634 135.643 13.011 133.933 13.875ZM130.018 7.773H125.239V12.795H130.018C130.936 12.795 131.638 12.57 132.124 12.12C132.628 11.652 132.88 11.013 132.88 10.203C132.88 9.447 132.628 8.853 132.124 8.421C131.62 7.989 130.918 7.773 130.018 7.773ZM125.239 20.976H130.396C131.422 20.976 132.205 20.751 132.745 20.301C133.285 19.833 133.555 19.176 133.555 18.33C133.555 16.548 132.502 15.657 130.396 15.657H125.239V20.976Z" fill="black"/>
<path d="M10.0343 23.2541C10.0343 23.3736 9.89516 23.4691 9.71976 23.4691C9.52016 23.487 9.38105 23.3915 9.38105 23.2541C9.38105 23.1347 9.52016 23.0391 9.69556 23.0391C9.87702 23.0212 10.0343 23.1168 10.0343 23.2541ZM8.15323 22.9854C8.11089 23.1048 8.23186 23.2422 8.41331 23.278C8.57056 23.3377 8.75202 23.278 8.78831 23.1586C8.8246 23.0391 8.70968 22.9018 8.52823 22.8481C8.37097 22.8062 8.19556 22.866 8.15323 22.9854ZM10.8266 22.8839C10.6512 22.9257 10.5302 23.0391 10.5484 23.1765C10.5665 23.2959 10.7238 23.3736 10.9052 23.3318C11.0806 23.29 11.2016 23.1765 11.1835 23.0571C11.1653 22.9436 11.002 22.866 10.8266 22.8839ZM14.8065 0C6.41734 0 0 6.28829 0 14.5712C0 21.1939 4.22177 26.8611 10.252 28.8557C11.0262 28.993 11.2984 28.5212 11.2984 28.1331C11.2984 27.7628 11.2802 25.7205 11.2802 24.4664C11.2802 24.4664 7.04637 25.3622 6.15726 22.6868C6.15726 22.6868 5.46774 20.949 4.47581 20.5011C4.47581 20.5011 3.09073 19.5636 4.57258 19.5815C4.57258 19.5815 6.07863 19.7009 6.90726 21.1222C8.23185 23.4273 10.4516 22.7644 11.3165 22.3703C11.4556 21.4148 11.8488 20.752 12.2843 20.3578C8.90323 19.9876 5.49194 19.5039 5.49194 13.759C5.49194 12.1168 5.95161 11.2926 6.91935 10.2416C6.7621 9.85345 6.24798 8.25301 7.07661 6.18677C8.34073 5.7986 11.25 7.79915 11.25 7.79915C12.4597 7.46473 13.7601 7.29155 15.0484 7.29155C16.3367 7.29155 17.6371 7.46473 18.8468 7.79915C18.8468 7.79915 21.756 5.79263 23.0202 6.18677C23.8488 8.25898 23.3347 9.85345 23.1774 10.2416C24.1452 11.2986 24.7379 12.1227 24.7379 13.759C24.7379 19.5218 21.1754 19.9816 17.7944 20.3578C18.3508 20.8296 18.8226 21.7254 18.8226 23.1287C18.8226 25.1412 18.8044 27.6315 18.8044 28.1211C18.8044 28.5093 19.0827 28.9811 19.8508 28.8437C25.8992 26.8611 30 21.1939 30 14.5712C30 6.28829 23.1956 0 14.8065 0ZM5.87903 20.5967C5.8004 20.6564 5.81855 20.7938 5.92137 20.9072C6.01815 21.0028 6.15726 21.0446 6.23589 20.9669C6.31452 20.9072 6.29637 20.7699 6.19355 20.6564C6.09677 20.5609 5.95766 20.5191 5.87903 20.5967ZM5.22581 20.113C5.18347 20.1906 5.24395 20.2862 5.36492 20.3459C5.46169 20.4056 5.58266 20.3877 5.625 20.3041C5.66734 20.2264 5.60685 20.1309 5.48589 20.0712C5.36492 20.0353 5.26815 20.0533 5.22581 20.113ZM7.18548 22.2389C7.08871 22.3166 7.125 22.4957 7.26411 22.6092C7.40323 22.7465 7.57863 22.7644 7.65726 22.6689C7.73589 22.5913 7.6996 22.4121 7.57863 22.2986C7.44556 22.1613 7.26411 22.1434 7.18548 22.2389ZM6.49597 21.3611C6.39919 21.4208 6.39919 21.5761 6.49597 21.7134C6.59274 21.8508 6.75605 21.9105 6.83468 21.8508C6.93145 21.7731 6.93145 21.6179 6.83468 21.4805C6.75 21.3432 6.59274 21.2834 6.49597 21.3611Z" fill="black"/>
</svg>
