<svg width="139" height="37" viewBox="0 0 139 37" fill="none" xmlns="http://www.w3.org/2000/svg">
<path d="M23.021 16.449L28.068 1.112H36.594L24.393 36H14.593L2 1.112H10.869L15.965 16.449C17.5657 21.447 18.758 25.5303 19.542 28.699C20.6853 24.2237 21.845 20.1403 23.021 16.449ZM66.4404 31.786C63.141 35.118 58.829 36.784 53.5044 36.784C48.1797 36.784 43.8677 35.118 40.5684 31.786C37.269 28.4213 35.6194 24.0113 35.6194 18.556C35.6194 13.1007 37.269 8.69067 40.5684 5.326C43.8677 1.994 48.1797 0.327998 53.5044 0.327998C58.829 0.327998 63.141 1.994 66.4404 5.326C69.7397 8.69067 71.3894 13.1007 71.3894 18.556C71.3894 24.0113 69.7397 28.4213 66.4404 31.786ZM46.7914 26.641C48.4574 28.601 50.695 29.581 53.5044 29.581C56.281 29.581 58.535 28.601 60.2664 26.641C61.965 24.7137 62.8144 22.0187 62.8144 18.556C62.8144 15.0933 61.965 12.3983 60.2664 10.471C58.535 8.511 56.281 7.531 53.5044 7.531C50.695 7.531 48.4574 8.511 46.7914 10.471C45.0927 12.3983 44.2434 15.0933 44.2434 18.556C44.2434 22.0187 45.0927 24.7137 46.7914 26.641ZM89.8781 36.784C85.3374 36.784 81.6787 35.559 78.9021 33.109C76.1254 30.7243 74.7371 27.2617 74.7371 22.721V1.112H83.0181V22.819C83.0181 25.0403 83.6061 26.739 84.7821 27.915C85.9907 29.0583 87.6894 29.63 89.8781 29.63C92.0667 29.63 93.7654 29.0583 94.9741 27.915C96.1827 26.739 96.7871 25.0403 96.7871 22.819V1.112H105.068V22.721C105.068 27.1963 103.712 30.659 101.001 33.109C98.3224 35.559 94.6147 36.784 89.8781 36.784ZM129.132 28.601H137.462V36H108.307V29.483L119.969 15.763C121.243 14.2603 123.383 11.8103 126.388 8.413C120.377 8.47833 117.013 8.511 116.294 8.511H108.895V1.112H137.168V7.58L125.457 21.349C123.203 23.995 121.047 26.445 118.989 28.699C125 28.6337 128.381 28.601 129.132 28.601Z" fill="black"/>
<line y1="4" x2="38" y2="4" stroke="black" stroke-width="6"/>
</svg>
